<svg xmlns="http://www.w3.org/2000/svg" id="Calque_1" data-name="Calque 1" viewBox="0 0 3568 1312" class="amsvglogo replaced-svg"><defs><style>.cls-1{fill:#fffffe;}.cls-2{fill:#ebb418;}.cls-3{fill:#04a2b1;}.cls-4{fill:#af7c24;}</style></defs><ellipse class="cls-1" cx="1784" cy="656" rx="2522.96" ry="927.72"></ellipse><path class="cls-2" d="M664.16,618.21q0-130.29,0-260.59c0-12.44-1.82-12,11.57-12.12,33.28-.2,66.57-1.18,99.83-.59,66.62,1.19,133.22.24,199.83.57,26,.13,52-.22,77.95-.25,36.93-.05,73.87-.24,110.8.06,46.49.37,82.84,29.57,92.93,74,1.57,6.9,1.39,13.88,1.39,20.86q0,143.74,0,287.5c0,24.22-.4,48.46.1,72.67.88,42.6-31.87,82.4-75.7,89.9a107.44,107.44,0,0,1-20.84,1.52c-4-.1-6.14.58-5.32,5.55,6.37,38.67,12.52,77.39,18.73,116.09.89,5.56,1.84,11.13,2.57,16.71.56,4.26-.54,8-4.52,10.29-4.35,2.47-8.29,1.39-11.88-1.77-13.23-11.67-26.5-23.29-39.7-35q-40.67-36.09-81.28-72.23c-12.67-11.22-25.77-22-38.17-33.46-5-4.68-10.13-6.31-16.91-6.29q-153.9.29-307.82.09c-15.54,0-13.53,2.23-13.55-13.93Q664.06,748,664.16,618.21Z" transform="translate(-182.74 -101.14)"></path><path class="cls-3" d="M547.59,826.77c1-31.47.87-62.94.11-94.41-2-3.2-2.31-6.78-2.33-10.43q-.11-22.65,0-45.3c0-3.63.22-7.24,2.43-10.37.42-31.33,1-62.66-.29-94-2.24-3.56-2.09-7.57-2.1-11.52,0-14.86-.1-29.71,0-44.57,0-3.61-.07-7.3,2.09-10.52,1.23-7.9.62-15.86.6-23.78,0-23.5-.3-47-.48-70.48-2.24-3.16-2.16-6.84-2.19-10.44q-.18-22.7,0-45.39c0-3.6-.06-7.29,2.39-10.36.12-24.62,1.74-49.35-.05-73.84-1.83-25,1.22-49.67.68-74.53-.64-30.19,26.4-51.25,56-44.69,25,5.53,49.66,12.11,74.47,18.27q65.79,16.32,131.57,32.7c45.16,11.22,90.37,22.23,135.46,33.73,17.7,4.52,29.63,15.77,35.07,33.53a29.24,29.24,0,0,1,1.29,8.81c0,13.64,0,27.29,0,40.93-.05,8.53-.16,8.16-9,8.74-27.21,1.78-53.62-3.27-80.11-8.38C841,310.42,788.69,300.8,736.45,291q-52.87-10-105.73-20c-9.81-1.85-9.9-1.83-9.9,8.08q0,92.34,0,184.69,0,243.57,0,487.16c0,15,0,15.11,15.16,12.42,31.07-5.53,62.11-11.32,93.19-16.8,39.6-7,79.25-13.75,118.86-20.69,27.16-4.75,54.33-9.47,81.43-14.54,11.94-2.23,23.89-1,35.83-1.18,16.86-.3,16.87-.08,16.87,16.59,0,12.31.36,24.64-.17,36.93-.21,5,1.6,9.51,1.37,14.63-.73,16-10.62,25.74-21.84,34.67-4.38,3.49-9.72,5.59-15.33,7q-84.23,20.83-168.4,41.87-73,18.17-146.11,36.27-12.58,3.12-25.21,6c-31.19,7.21-57.73-13.12-58.5-45.25-.47-19.62-.12-39.26-.08-58.89q.09-50.91.24-101.82a41.39,41.39,0,0,0-.58-4.93c-2.36-3.52-2.08-7.56-2.1-11.48q-.13-22.25,0-44.48C545.48,833.63,545.36,830,547.59,826.77Z" transform="translate(-182.74 -101.14)"></path><path class="cls-3" d="M1410.13,524.66v12q0,157.21,0,314.45c0,2.66-.18,5.34,0,8,.35,4.56-2.13,6.85-6.14,7.66a119.09,119.09,0,0,1-15.73,2.58c-14,.91-28,.87-41.82-1.52-9.26-1.59-10.42-2.85-10.42-12.28q0-230.1,0-460.2c0-9.16,0-9.58,8.93-11.16,18.16-3.23,36.44-2.37,54.7-.66,6.47.61,10.6,4,14.26,9.44q71.65,106.39,143.7,212.52,38.6,57,77.23,114.06c1.63,2.4,2.68,5.35,6.86,7.62V400.73a65,65,0,0,0,0-7c-.62-5.77,2.06-8.32,7.58-9.52,12.19-2.67,24.51-2.18,36.8-2.06,7.62.08,15.27.2,22.81,2.15,5,1.29,7.69,3.52,7.12,8.92a56.76,56.76,0,0,0,0,6V851.43c0,1,0,2,0,3,0,10.9-.83,11.89-11.25,13.61-17.57,2.91-35.12,2.41-52.69-.15-6.53-.95-10.53-4.72-14.06-10q-34.8-51.78-69.9-103.36-75-110.73-150.17-221.41C1416.06,530.46,1414.81,527.23,1410.13,524.66Z" transform="translate(-182.74 -101.14)"></path><path class="cls-2" d="M2701.62,624.84q0-112.83,0-225.65c0-2.33.16-4.68,0-7-.37-4.43,1.66-6.64,5.9-7.73a104.11,104.11,0,0,1,25.7-3.2c52.64-.16,105.28-.72,157.91.13,39.43.64,72.93,17,100.81,44.33,31.55,30.93,50.08,68.41,48.79,113.08-1.64,56.33-29.44,98.31-76.67,127.79-23.68,14.79-49.84,21.71-77.82,21.66q-49-.1-97.95,0c-12.87,0-11.42-1.58-11.43,11.94q-.09,76.38,0,152.76c0,13-.61,13.45-13.9,15.1a179.35,179.35,0,0,1-46.81,0c-2.62-.36-5.22-.95-7.83-1.41-4.59-.79-7.13-3.17-6.68-8.16.22-2.31,0-4.66,0-7Q2701.62,738.17,2701.62,624.84Z" transform="translate(-182.74 -101.14)"></path><path class="cls-3" d="M2436.49,714.43H2324.57c-2,0-4,0-6,0-7.58.21-8.11.67-6.17,8.13,8.81,33.81,29.33,58.13,62.93,67.56,39.28,11,76.67,6.56,107.23-24.31a75.71,75.71,0,0,0,11.07-14.1c3.6-5.94,8.82-7.83,15.33-6.65,18.34,3.33,33.71,12.17,46.18,25.84,7.22,7.92,7.44,12.41,1.48,21.34-28.74,43-68.31,69.2-120,75.93-34.24,4.45-68,2.23-99.75-12.31-55.36-25.36-89.22-67.76-99.63-128.26-2.57-14.92-1.71-29.87-1.63-44.8.09-16.6-.94-33.19,1.56-49.79,10.18-67.58,58.4-121.48,125.29-137.58,92.09-22.17,179.65,31.19,203.31,118.05,7.45,27.36,7.31,55.18,3.76,83.09a29.83,29.83,0,0,1-1.84,6.71c-3.55,9.39-6,11.12-16.3,11.13Q2494,714.47,2436.49,714.43Z" transform="translate(-182.74 -101.14)"></path><path class="cls-2" d="M3156.41,715c.48,11.48,4.51,21.7,10.13,31.12,18.4,30.89,45.2,48,81.81,48.19,12.3.06,24.63.57,36.65-3.11a96.09,96.09,0,0,0,52.26-37.94c6.18-8.88,9.63-10.37,20.14-7.9a82.33,82.33,0,0,1,41,23.38c7.44,7.7,9.68,13.94,2.15,24.72-30.47,43.63-71.42,69.61-124.87,74.92-39.77,4-77.9-1.3-112.45-22.44-51.27-31.38-80-76.88-82.57-137.49-.82-18.93-.41-37.92-.09-56.88,1.24-73.12,53-137.64,123.74-155.76,81.85-21,163.52,17.58,197.6,92.76a162.17,162.17,0,0,1,14.41,60.74c.59,14.26,1.35,28.61-1.25,42.8a71,71,0,0,1-2.22,9.7c-3.38,10.23-6.45,12.37-17.47,12.37q-113.38,0-226.77,0C3164.72,714.23,3160.72,713.71,3156.41,715Z" transform="translate(-182.74 -101.14)"></path><path class="cls-3" d="M1945.67,680.42c.32,13.59-1.05,27.23,1.73,40.77,9.65,46.9,52,74.09,87.88,73.4,5-.1,10-.08,15,0,33,.58,58.36-14,77.05-40.31,5.53-7.79,11.55-10.29,20.27-8.25a80.72,80.72,0,0,1,43.1,25.44c6.73,7.62,6.89,12.3,1.3,20.63-28.52,42.52-67.25,69.45-118.72,76-34.48,4.4-68.55,2.65-100.81-11.79-55.79-25-89.15-67.84-100.08-127.9a140.13,140.13,0,0,1-1.91-25.81c.15-20.93-1.11-41.88,1.15-62.8,7.8-72.08,63.9-137.42,142-147.39,33.75-4.31,67.11-3.06,99.11,10.18,33.29,13.78,59.62,36,79.14,66.18,5.57,8.62,5.54,12.93-1.16,20.59-12.23,14-27.86,22.47-46,26.21-7.27,1.5-12.4-1.54-16.68-7.93-13.88-20.71-32.66-35.76-57.49-39.84-30.34-5-60.66-4.84-86.93,15.1-23.62,17.94-36.41,41.87-37.89,71.55C1945.31,663.11,1945.67,671.77,1945.67,680.42Z" transform="translate(-182.74 -101.14)"></path><path class="cls-2" d="M3513.17,675.58V572.78c0-2,0-4,0-6-.22-7.15-.24-7.31-7.2-7.39-11.32-.14-22.65,0-34-.06-10.68-.05-11.87-.71-14-11.26a113.6,113.6,0,0,1,.25-47.52c2.14-9.67,3-10.13,12.7-10.17,11.66-.05,23.32.06,35,0,7.05-.06,7.23-.19,7.24-7.18.08-28.28,0-56.56,0-84.84,0-11.95,1.39-13.64,13-15.45a155.92,155.92,0,0,1,48.74,0,37.06,37.06,0,0,1,3.89.88c8.66,2.33,9.54,3.35,9.56,12.34.06,22.95,0,45.91,0,68.86v15c0,11.49-.51,10.46,10.06,10.47,17.65,0,35.3,0,52.95,0,8.75,0,9.75.51,11.74,8.81a108,108,0,0,1,.19,50.38c-2.13,9.07-3.09,9.68-12.16,9.73-18,.1-36,0-53.94.06-8.68,0-8.81.14-8.82,8.85q0,99.32,0,198.61c0,17.57,7.34,25.72,25.07,27,11.6.83,23.29.42,34.94.49,11.9.07,13.19.67,15.3,12.1,3.31,17.81,3.51,35.72-.65,53.46-2,8.78-3.25,9.57-12.25,9.58-24.65,0-49.26-.32-73.53-5.41a103.17,103.17,0,0,1-23.58-7.89c-24.32-11.7-34.86-32.62-38.68-57.94a193,193,0,0,1-1.91-29.83C3513.27,737.46,3513.17,706.52,3513.17,675.58Z" transform="translate(-182.74 -101.14)"></path><path class="cls-3" d="M1830.38,679.34q0,87.79,0,175.59c0,11.28-.31,11.56-11.3,13.18a172.51,172.51,0,0,1-51.68,0c-11.31-1.74-11.6-2.05-11.6-13q0-175.08,0-350.18c0-10.58.39-11,10.88-12.57a174.1,174.1,0,0,1,51.67-.15c12,1.78,12,1.77,12,13.51Q1830.4,592.55,1830.38,679.34Z" transform="translate(-182.74 -101.14)"></path><path class="cls-2" d="M547.54,505.67q1.61,33.32,0,66.61c-55.59-1.43-111.19-.55-166.78-.44-10.61,0-21.22-.26-31.83-.26-15.41,0-27.77-10.83-30.37-26.28-2.83-16.81,5.89-33,20.46-38a16.86,16.86,0,0,1,3.87-.73c1.32-.12,2.66,0,4,0l189.69-1C540.22,505.45,543.88,505.6,547.54,505.67Z" transform="translate(-182.74 -101.14)"></path><path class="cls-4" d="M346.65,826.94c19.3,0,38.6-.17,57.89,0,26.23.3,37.85,26.38,29.64,46-5.23,12.5-14.86,19.89-28.4,20-39.93.38-79.86.32-119.79,0-15.13-.12-26.95-10-30.59-24-3.86-15,2.35-30.52,15.1-38,6-3.5,12.54-4.11,19.25-4.11h56.9Z" transform="translate(-182.74 -101.14)"></path><path class="cls-2" d="M346.53,410.67q-30,0-59.95,0c-19.14,0-32-12.57-32.18-31.49-.22-19.5,12.53-33.41,31.42-34.12,5.65-.21,11.32,0,17,0h99.93a56,56,0,0,1,12.89,1.08c13.07,3,22.58,13.4,23.84,26.93,1.06,11.41-1.38,21.88-10.14,30-5.27,4.89-11.29,7.79-18.83,7.71C389.17,410.52,367.85,410.67,346.53,410.67Z" transform="translate(-182.74 -101.14)"></path><path class="cls-3" d="M1743.93,401.72c0-7.3-.35-14.58,1.82-21.75a46.63,46.63,0,0,1,43.68-33.39c13.42-.46,25.78,1.71,36.38,10.7,12.36,10.48,17.21,24.1,17.09,39.82-.05,6.64-.3,13.31-1,19.91-2.23,20.82-21.41,38.78-42.37,39.67-7,.29-14,.75-20.85-1.14A47.31,47.31,0,0,1,1744,412.7C1743.76,409.05,1743.93,405.38,1743.93,401.72Z" transform="translate(-182.74 -101.14)"></path><path class="cls-4" d="M547.81,666.26c.8,22,1.24,44.07-.11,66.1-35.28,0-70.55,0-105.82-.07-15,0-27-9.35-30.89-23.53s1.95-30,13.91-37.67c5-3.2,10.37-4.13,16.14-4.11q25.45.12,50.91,0C510.57,666.91,529.21,667.49,547.81,666.26Z" transform="translate(-182.74 -101.14)"></path><path class="cls-2" d="M311.61,732.47c-8.65,0-17.3.19-25.94,0-18.44-.48-31.24-14-31.28-32.93s12.91-32.82,31.14-33.12c17.62-.29,35.25-.32,52.87,0,17.78.33,30.61,14.09,30.85,32.42.25,18.76-12.65,33-30.71,33.6C329.57,732.7,320.59,732.46,311.61,732.47Z" transform="translate(-182.74 -101.14)"></path><path class="cls-4" d="M3391.88,1204c.57-1.09,1.08-1.62,1.1-2.17.07-4,.89-7.72,5.91-7.29,5.24.44,4.57,4.81,4.57,8.41q0,58.38-.08,116.76a47,47,0,0,1-.94,9.91c-2.18,9.78-8.37,16.47-18.25,17.3a387,387,0,0,1-61.85.07c-11.19-.87-18.62-10-19.2-20.94-.16-3.14,0-6.22,4-6.76,3.62-.48,5.15,1.36,6.16,4.85,3.37,11.72,5.34,13.2,17.37,13.32q22.47.22,44.95,0c13.17-.16,17.14-4.15,17.41-17.45.2-10.5,0-21,0-33.2-19.1,18.71-41.48,15.84-63.05,13.31-16.64-1.95-25.52-12.73-26.68-30a337.85,337.85,0,0,1,0-43.86c1.21-19,11.08-28.54,30.18-31.13,11.93-1.62,23.92-1,35.88-.5A33.77,33.77,0,0,1,3391.88,1204Z" transform="translate(-182.74 -101.14)"></path><path class="cls-4" d="M730.44,1288.49c-7,5.09-13.85,10.32-22.69,11.55-13.91,1.93-27.81,2.51-41.62-.36-13.65-2.84-21.55-11.78-23.51-25.19a185.88,185.88,0,0,1-.07-52.67c2.13-15.25,11.57-24,27-26.43s31.23-.9,46.85-1.14,15.47,0,15.48-15.17c0-10,0-19.95,0-29.92,0-3.68-.38-7.9,5.19-7.64,5.22.25,5,4.33,5.13,8,0,1.33,0,2.66,0,4q0,67.83,0,135.65a44.76,44.76,0,0,1-.59,8.9c-.53,2.65-2.84,3.43-5.43,3.21a4.11,4.11,0,0,1-4.09-3.6C731.51,1294.85,732.61,1291.72,730.44,1288.49Z" transform="translate(-182.74 -101.14)"></path><path class="cls-4" d="M2477.3,1288.6c-6.86,5-13.7,10.22-22.55,11.44-13.91,1.92-27.8,2.52-41.62-.36-13.65-2.85-21.54-11.8-23.5-25.2a185.88,185.88,0,0,1-.06-52.67c2.13-15.26,11.58-24,27-26.42s31.23-.9,46.84-1.14c15.46-.23,15.47,0,15.47-15.19q0-15.45,0-30.92c0-3.06,0-6.25,4.22-6.63,4.36-.38,5.9,2.24,6.07,6.08.08,2,0,4,0,6q0,67.83,0,135.65a44.61,44.61,0,0,1-.59,8.89c-.55,2.65-2.86,3.43-5.45,3.2a4.17,4.17,0,0,1-4.08-3.61C2478.47,1294.85,2479.82,1291.66,2477.3,1288.6Z" transform="translate(-182.74 -101.14)"></path><path class="cls-4" d="M1298,1286.36c-12,13.23-26.09,15.48-41.13,15-5.32-.16-10.67.16-16-.2-19.05-1.32-30.39-11.48-32.25-30.41a237.4,237.4,0,0,1,0-45.86c1.73-18,11.5-27.35,29.47-29.75,16.24-2.16,32.6-.6,48.9-1,12.77-.28,11.2,1.28,11.29-11.12.08-10.31,0-20.63,0-30.95a47.51,47.51,0,0,1,.31-7c.42-2.71,2.38-3.78,5-3.72s4.45,1.35,4.71,4.09c.23,2.31.25,4.65.25,7q0,68.88,0,137.77c0,2.33,0,4.66-.25,7-.28,2.75-2,4-4.75,4s-4.66-1.14-5.08-3.75C1298.1,1294.66,1298.23,1291.64,1298,1286.36Z" transform="translate(-182.74 -101.14)"></path><path class="cls-4" d="M1869.38,1205.37c21.09-18.16,51.59-15.87,67.67,5,14-20.79,34.68-17.69,54.93-14.56,8,1.23,13.51,6.78,16.38,14.6a53.3,53.3,0,0,1,3.44,18.51q0,31.93,0,63.87a39.25,39.25,0,0,1-.17,5c-.36,2.85-2.31,3.79-5,3.73s-4.5-1.28-4.77-4c-.22-2.31-.13-4.65-.13-7,0-19,.14-37.92-.14-56.87-.35-23.75-6.25-29.36-29.78-29.23-24.17.13-31.74,7.6-31.82,31.58-.06,18.3,0,36.59,0,54.88,0,2,0,4-.12,6-.18,3.19-1.89,4.8-5.16,4.65s-4.81-1.87-4.87-5c0-2.33,0-4.65,0-7,0-18.63.14-37.26,0-55.88-.25-23.48-6.35-29.32-29.85-29.19-24.11.13-31.72,7.64-31.83,31.63-.09,18.29,0,36.58,0,54.88a62.11,62.11,0,0,1-.26,7,3.84,3.84,0,0,1-4,3.59c-2.51.14-4.85-.32-5.44-3.13a34.09,34.09,0,0,1-.46-6.93q0-43.41,0-86.81c0-1.66,0-3.33.05-5,0-3.28,2-5,4.94-5.11s5,1.43,5.21,4.76C1868.2,1201.07,1867.4,1203.11,1869.38,1205.37Z" transform="translate(-182.74 -101.14)"></path><path class="cls-4" d="M2904.53,1204.8c18.2-16.79,57.64-15.18,68,5.37,14.65-20.81,35.51-17.61,56.06-14.05,7.11,1.23,12.18,6.52,14.93,13.53a52.71,52.71,0,0,1,3.73,19.45q0,31.94,0,63.87a35.88,35.88,0,0,1-.22,5c-.32,2.29-1.82,3.4-4.11,3.49-2.5.1-4.84-.34-5.34-3.23a40.06,40.06,0,0,1-.34-6.94c-.06-19.29.13-38.59-.16-57.87-.36-23.61-6.3-29.18-30-29-24,.15-31.55,7.68-31.62,31.78-.06,18.63,0,37.26,0,55.88,0,8-1.14,9.85-5.47,9.4-6.19-.64-4.65-5.51-4.67-9.2-.12-19.29-.09-38.58-.05-57.87,0-6-.41-12-2.47-17.69-2.32-6.43-6.72-10.57-13.71-11.56a83.27,83.27,0,0,0-27.82.51c-8.19,1.6-13.62,6.65-15.87,14.79a57.8,57.8,0,0,0-1.92,15.79c.1,18.29.05,36.58,0,54.88a57.45,57.45,0,0,1-.3,7c-.29,2.31-1.91,3.34-4.18,3.41-2.54.09-4.81-.48-5.3-3.33a40.12,40.12,0,0,1-.4-6.94q0-43.41,0-86.81c0-.67,0-1.33,0-2-.15-3.87.06-7.84,5.18-7.87,5.31,0,5,4.19,5.07,7.92C2903.54,1203.29,2903.33,1204.37,2904.53,1204.8Z" transform="translate(-182.74 -101.14)"></path><path class="cls-4" d="M3079.29,1208.1c19.8-17.56,42.49-15.4,64.94-11.9,12.57,2,20.64,10.65,23,23.38,3.26,17.79,3.07,35.85.51,53.61-2.65,18.38-14,27.44-33.15,28-14.64.46-29.3.12-44,.14a44.17,44.17,0,0,1-6,0c-5.2-.72-6.09,2-6,6.42.22,10,.1,20,0,29.94a29.3,29.3,0,0,1-.57,6.89c-.69,2.75-3.11,3.19-5.59,3a3.89,3.89,0,0,1-4-3.7c-.23-2.31-.27-4.65-.27-7q0-65.88,0-131.75c0-2,0-4,.15-6a4.54,4.54,0,0,1,4.25-4.71c3-.34,5.26,1,5.78,4.18C3078.91,1201.46,3079,1204.32,3079.29,1208.1Z" transform="translate(-182.74 -101.14)"></path><path class="cls-4" d="M1673.28,1233.49c1.51-17.86-5.69-27.08-22-28.31a197.75,197.75,0,0,0-32.92.19c-9.2.85-16.85,4-19.06,14.38-.66,3.09-2.3,5.94-6.08,5.25-4.23-.78-4.6-4-4.08-7.71,1-7.4,4.55-13.12,11-17a35.24,35.24,0,0,1,13.08-4.64,148.13,148.13,0,0,1,41.79-.45c17.9,2.53,27.09,12.13,29,30.13,1.22,11.28.66,22.6.72,33.91q.07,17.46,0,34.93c0,2.61.18,5.67-3,6.72s-6.25.53-7-3.31c-.64-3.18-.52-6.52-.81-10.93-7.74,6.39-15.11,11.8-24.55,13.36a133.54,133.54,0,0,1-39.76.44c-13-1.76-19.56-9.54-21.93-22.47a58.38,58.38,0,0,1,.2-21.81c2.16-11.23,8.59-18.36,19.89-21.1a62.42,62.42,0,0,1,14.83-1.62h50.72Z" transform="translate(-182.74 -101.14)"></path><path class="cls-2" d="M547.59,826.77c1,22.14,1,44.29-.05,66.43-12.62,0-25.24.15-37.85-.1-14.93-.29-27.27-9.92-31.6-24.22-5.2-17.16,7.16-37.71,24.76-41.17,7.23-1.42,14.52-1.2,21.83-1C532.31,826.84,540,826.75,547.59,826.77Z" transform="translate(-182.74 -101.14)"></path><path class="cls-4" d="M1381.81,1251.61c-12.65,0-25.3.15-38-.08-4.56-.08-6.38,1.11-6.61,6.06-1.16,24.65,6.84,33.4,31.65,33.76,7,.1,14,0,21-.07,1,0,2,0,3,0,15.07-.84,19.45-4.12,24.18-18.53,1-3.2,2.43-5.67,6.15-5s4.56,3.43,4.11,6.77c-1.44,10.59-6.13,18.78-16.47,23.15-12.16,5.14-52.75,5.35-64.91.32-10.21-4.23-16-12.17-17.56-22.56a182.76,182.76,0,0,1,0-54.66c2.2-14.5,11.33-23.07,25.83-25.22a155.61,155.61,0,0,1,45.76.06c15,2.23,23.33,11,26.42,26a92.94,92.94,0,0,1,1.46,20.85c-.17,8.55-.71,9-9,9.26h-37Z" transform="translate(-182.74 -101.14)"></path><path class="cls-4" d="M3628.5,1251.61c-12.65,0-25.31.16-38-.08-4.62-.09-6.92,1.19-6.46,6.12.27,3,.05,6,.28,9,1.26,16.65,8.42,23.8,25.35,24.54,10,.44,20,.39,29.95,0,15.05-.58,19.34-4,24.14-18.52,1.06-3.2,2.48-5.64,6.2-5s4.5,3.49,4,6.82c-1.45,10.59-6.12,18.87-16.52,23.08a46.86,46.86,0,0,1-17.45,3.74c-10.32.07-20.64.26-31,0-21.36-.57-32.73-10.67-34.85-31.93a200.93,200.93,0,0,1,.34-45.79c2.23-17.18,11.19-26.14,28.36-28.36a157.63,157.63,0,0,1,42.79.18c15.71,2.27,24.2,10.73,27.36,26.14a94.83,94.83,0,0,1,1.43,21.85c-.2,7.22-1,8.09-8.09,8.17C3653.8,1251.71,3641.15,1251.6,3628.5,1251.61Z" transform="translate(-182.74 -101.14)"></path><path class="cls-4" d="M3274.73,1287.71c-12.75,11-26.58,14.22-41.8,13.7-6.32-.22-12.67.22-19-.22-15.12-1-24.16-9-26.41-23.74-1.25-8.21-1.23-16.53,1.24-24.7,2.74-9.08,8.69-14.69,17.66-17.29a58.92,58.92,0,0,1,16.78-2c15,.06,30,.1,44.93,0,6.45-.06,6.64-.49,5.78-7-1.82-13.68-8.25-20.12-22-21.23a209,209,0,0,0-32.91.07c-9.68.75-17.49,4.19-19.8,14.85-.74,3.39-2.65,5.52-6.29,4.74s-4.17-3.84-3.79-7c.82-7,3.89-12.63,9.77-16.63a29.36,29.36,0,0,1,10-4.37,122.53,122.53,0,0,1,51.47-.64c12.56,2.51,20.07,11,22.84,23.62a76.74,76.74,0,0,1,1.76,16.81q0,26.94,0,53.86c0,1,0,2,0,3-.07,3.73.09,7.76-5.28,7.78-5.68,0-4.79-4.33-4.91-7.88C3274.68,1291.51,3274.73,1289.61,3274.73,1287.71Z" transform="translate(-182.74 -101.14)"></path><path class="cls-4" d="M2111.77,1286.61c-10.9,11.78-24.36,15.22-39.26,14.8-6.32-.19-12.66.19-19-.15-16.76-.88-26.38-10.16-27.71-26.84-.58-7.27-.62-14.57,1.61-21.74,2.82-9,8.75-14.66,17.72-17.23a59,59,0,0,1,16.79-2c14.64.06,29.29.09,43.93,0,7.66,0,7.74-.3,6.5-8-2.12-13.14-8.35-19.13-21.89-20.2a210.23,210.23,0,0,0-32.91.09c-9.69.76-17.47,4.24-19.76,14.9-.73,3.39-2.71,5.5-6.34,4.67s-4.1-3.91-3.72-7.09c.9-7.35,4.28-13.18,10.67-17.14a29.55,29.55,0,0,1,9.15-3.81,122.58,122.58,0,0,1,51.48-.6c12.55,2.53,20,11,22.79,23.66a78,78,0,0,1,1.74,16.82q0,26.92,0,53.86c0,1.33,0,2.66,0,4,0,3.62-.72,6.75-5.33,6.74-4.92,0-4.74-3.54-4.89-7C2113.25,1292.13,2114.06,1289.77,2111.77,1286.61Z" transform="translate(-182.74 -101.14)"></path><path class="cls-4" d="M458.84,1251.61c-12.66,0-25.32.18-38-.09-4.88-.1-6.77,1.66-6.17,6.37a6.54,6.54,0,0,1,0,1c-.6,23.75,7.3,32.08,31,32.45,8,.12,16,.16,24-.13,15.7-.58,20.1-3.94,24.9-18.8,1.08-3.35,2.85-5.34,6.42-4.7,3.27.59,3.91,3.18,3.7,6.09-.81,10.82-5.68,18.94-15.75,23.57-12.13,5.58-53.43,5.69-65.85.39-12.26-5.24-17.33-15.56-18.08-27.68a347.12,347.12,0,0,1,0-43.87c1.23-19.13,10.95-28.82,30.08-31.14a156.19,156.19,0,0,1,40.81.26c16.9,2.4,26.32,11.75,28.41,28.52.87,6.9.51,14,.8,20.92.22,5.18-2.29,7.3-7.29,6.85a8.34,8.34,0,0,0-1,0Z" transform="translate(-182.74 -101.14)"></path><path class="cls-4" d="M2561.74,1251.61c-12.65,0-25.31.17-38-.08-4.75-.1-6.88,1.46-6.25,6.27a6.67,6.67,0,0,1,0,1c-.64,23.75,7.29,32.15,30.91,32.52,8.33.13,16.66.22,25-.16,15.06-.69,19.38-4.14,24-18.68,1.05-3.34,2.76-5.43,6.34-4.78,3.91.7,4,3.85,3.73,7-1.05,10.39-5.94,18.16-15.61,22.63-12.06,5.58-53.37,5.73-65.84.45-12.28-5.2-17.23-15.5-18.2-27.63a263.54,263.54,0,0,1,0-44.86c1.69-18.6,11.21-27.93,30-30.22a156.18,156.18,0,0,1,40.81.24c17.29,2.44,26.74,12.12,28.62,29.43.72,6.59.42,13.29.69,19.93.2,5.11-2.13,7.07-7.21,7C2587.72,1251.47,2574.73,1251.6,2561.74,1251.61Z" transform="translate(-182.74 -101.14)"></path><path class="cls-4" d="M547.86,345.22c.73,22.07,1.15,44.14-.2,66.19-12.59-.13-25.22.22-37.78-.51-18.09-1-29.92-14.62-29.74-33.13.17-17.95,13.07-31.72,30.92-32.37C523.31,345,535.59,345.26,547.86,345.22Z" transform="translate(-182.74 -101.14)"></path><path class="cls-4" d="M242.76,1227.91c0-21.27,0-42.54,0-63.81,0-9.07.62-9.73,9.57-9.79q24.95-.19,49.89,0a71.31,71.31,0,0,1,10.89,1.13c15.3,2.46,25.1,12.2,27.43,27.46a99.42,99.42,0,0,1,.42,24.86c-1.9,19.23-13.79,30.87-33.31,31.57-15.28.55-30.59.19-45.89.29-8.69,0-8.76.09-8.79,8.65-.06,13.62,0,27.25,0,40.87,0,2,0,4,0,6,0,3.25-.66,6.06-4.76,6.16-4.6.11-5.42-2.92-5.42-6.6,0-2,0-4,0-6Z" transform="translate(-182.74 -101.14)"></path><path class="cls-4" d="M1490,1301.12c-8.32,0-16.68.53-24.94-.12-13.92-1.09-22.63-9.89-23.53-22.67-.21-3.07-.56-6.23,3.56-7,4.3-.78,5.68,1.82,6.69,5.5,3.11,11.4,6.17,14,18.11,14.27,13.64.33,27.3.36,40.93,0,12.89-.37,17.51-4.87,18.05-17.56.64-15.42-3.31-22.42-20.34-22.23-12.31.14-24.63,0-36.94,0a39.2,39.2,0,0,1-12.77-1.81c-11.5-3.85-16.77-13.25-16.06-28.83.66-14.66,6.14-22.52,18-25.34a44.36,44.36,0,0,1,9.84-1.37c13-.16,26-.31,38.94,0,14,.33,22.24,5.87,25.52,16.65a36.52,36.52,0,0,1,1.11,6.85,4.41,4.41,0,0,1-3.64,5.13c-2.61.66-4.49-.66-5.79-2.85a11.1,11.1,0,0,1-.63-1.87c-4.31-12.2-5.59-13.3-18.32-13.5q-18.46-.3-36.94,0c-6.39.11-13.42.57-15.9,7.76-2.63,7.64-3.14,15.85,1.23,23.16,3.3,5.51,9.46,5.72,15.13,5.8,12.65.17,25.29.07,37.94.06,5,0,10,.27,14.72,2.11,10.61,4.1,15.8,13.51,15.6,28.51s-5.6,23.87-16.79,27.61a35.93,35.93,0,0,1-11.76,1.88c-7,0-14,0-21,0Z" transform="translate(-182.74 -101.14)"></path><path class="cls-4" d="M839.11,1301.18c-8,0-16,.44-24-.1-13.67-.93-21.92-8.37-24.15-21-.64-3.62-1.54-7.69,3.73-8.67,4.42-.81,5.31,2.19,6.29,5.8,2.92,10.77,6.31,13.62,17.55,13.93,14,.38,28,.32,41.94,0,6.74-.16,13.71-1.25,16.16-9.08,2.76-8.82,3.46-17.84-2.38-25.75-3.16-4.27-8.51-4.86-13.61-4.88-12-.06-24,0-36-.06-3,0-6,.11-9-.18q-22.35-2.14-23.39-24.72c-.12-2.33-.11-4.66,0-7,.59-15,7.21-23.32,21.95-24.81a248.43,248.43,0,0,1,49.83,0c12.85,1.3,19.43,8.52,21.34,20.17.6,3.71.45,6.94-3.81,7.82-3.63.75-5.1-1.78-6.2-5-4.06-11.72-5.61-13-17.57-13.25q-19-.39-38,0c-6.34.13-13.11.55-15.71,8-2.73,7.8-3.13,15.81,1.37,23.07,3.14,5.06,8.91,5.5,14.26,5.6,10.32.21,20.64.08,31,.08h8c10.75,0,21.28,1.54,26.27,12.48,5.64,12.36,5.77,25.33-1.31,37.35-4.45,7.55-12.47,9.69-20.68,10.09-8,.39-16,.09-24,.09Z" transform="translate(-182.74 -101.14)"></path><path class="cls-4" d="M2772,1248.68c.12-9-.33-17.27,1-25.54,2.67-16.61,11.3-25.62,27.83-27.85a156.53,156.53,0,0,1,43.77.16c15.56,2.29,24.34,10.77,26.89,26.49a167,167,0,0,1,.22,50.65c-2.56,17.74-12.7,27.17-30.68,28.41a277.36,277.36,0,0,1-36.92,0c-18.74-1.2-28.62-11.29-31.37-30.11C2771.63,1263.29,2772.26,1255.66,2772,1248.68Z" transform="translate(-182.74 -101.14)"></path><path class="cls-4" d="M1002.35,1247.66c0,7.31.5,14.66-.1,21.92-1.58,19.29-12.74,30.4-32.09,31.52a320.47,320.47,0,0,1-34.93.05c-19.37-1-31.12-11.86-32.5-31.12a323.93,323.93,0,0,1,0-43.84c1.23-19.11,10.95-28.8,30-31.12a156,156,0,0,1,40.78.24c17.26,2.45,26.82,12.12,28.55,29.44.76,7.56.13,15.27.13,22.91Z" transform="translate(-182.74 -101.14)"></path><path class="cls-4" d="M3434.34,1209.71c20.1-18.68,42.47-17.46,65-13,11.85,2.35,18.66,10.93,21.35,22.58a73.46,73.46,0,0,1,1.94,16.8c0,18.28,0,36.56,0,54.85,0,1.33,0,2.66,0,4-.13,3.75-1.34,6.57-5.81,6.34-4.16-.21-4.49-3.19-4.49-6.36,0-14,.07-27.92,0-41.88-.08-9.29.62-18.61-1-27.86-2.28-12.82-8.2-18.85-21.08-19.88-11.58-.92-23.27-1.61-34.68,1.68-14.73,4.24-20.88,12.18-21,27.43-.14,18.61,0,37.22-.06,55.84a37,37,0,0,1-.61,7.89c-.6,2.69-2.93,3.37-5.48,3.15a4,4,0,0,1-4-3.74,55.75,55.75,0,0,1-.34-7q0-42.87,0-85.75c0-2,0-4,.19-6a4.47,4.47,0,0,1,4.51-4.42c3.09-.2,5.22,1.37,5.52,4.49C3434.57,1201.9,3434.34,1204.89,3434.34,1209.71Z" transform="translate(-182.74 -101.14)"></path><path class="cls-4" d="M2229.48,1286.8c-18.69,17.7-40.51,16.38-62.43,12.75-13.71-2.27-21.11-11.59-23.69-25a93.08,93.08,0,0,1-1.54-17.86c0-16.63,0-33.27,0-49.9,0-2,0-4,0-6,0-3.92,1.67-6.58,5.89-6.29,3.88.27,4.45,3.22,4.44,6.52q-.08,23.45,0,46.9c0,8-.25,15.95,1.18,23.88,1.8,9.9,7,16.36,17.21,18.14,13.93,2.44,27.84,2.55,41.38-2,12.06-4.09,17.81-11.93,18-24.66.25-18.62.07-37.25.08-55.88v-4c0-4-.45-8.82,5.32-8.82,6,0,5.08,5.06,5.09,8.91q.07,44.41,0,88.83a39.21,39.21,0,0,1-.26,5c-.35,2.71-2,4-4.73,4.09s-4.62-1.23-5.06-3.8C2229.85,1294.38,2229.82,1291.13,2229.48,1286.8Z" transform="translate(-182.74 -101.14)"></path><path class="cls-4" d="M1066.51,1209.81c20.19-18.69,42.61-17.88,65.18-13,14.09,3,21.53,13.5,22.44,29.41.81,14.26.49,28.59.59,42.9.06,8.65,0,17.3,0,25.95,0,3.21-.62,6.1-4.73,6.22-4.53.13-5.56-2.74-5.56-6.5q0-29,0-57.9c0-5.3-.15-10.56-1.55-15.81-2.22-8.32-7.51-13.77-15.59-15-13.17-2.08-26.56-2.62-39.62,1.06-14.52,4.08-20.91,12.53-21,27.57-.16,18.3,0,36.6,0,54.9,0,2.33,0,4.66-.1,7-.17,3.18-1.85,4.86-5.11,4.76s-4.77-2-4.91-5.08c-.09-2-.08-4-.08-6q0-42.42,0-84.85c0-.66,0-1.33,0-2,0-4-.73-8.85,5.12-8.91,6-.06,5,5,5.08,8.84C1066.55,1205,1066.51,1206.58,1066.51,1209.81Z" transform="translate(-182.74 -101.14)"></path><path class="cls-4" d="M534.69,1208.31c16.29-15.07,35.07-14.56,53.89-13.8a50.43,50.43,0,0,1,8.88,1.28c14.79,3.32,23.53,13.44,24.94,29.73.75,8.6.55,17.28.61,25.93.09,13,0,26,0,38.93a62.37,62.37,0,0,1-.26,7c-.3,2.73-2,4-4.79,4s-4.58-1.16-5-3.84a48.93,48.93,0,0,1-.28-7q0-25,0-49.91c0-2,0-4,0-6-.36-22.4-7.65-29.61-30.34-29.78-8.63-.06-17.3-.5-25.77,2-15,4.38-21.6,12.65-21.72,28.15-.14,19,0,37.93-.1,56.9,0,3.63,1.59,8.56-4.45,9.37-4.28.58-5.67-1.63-5.68-9.27q-.07-44.43,0-88.84a24.88,24.88,0,0,1,.23-5c.56-2.68,2.65-3.79,5.18-3.7s4.52,1.35,4.64,4.2C534.79,1201.87,534.69,1205.09,534.69,1208.31Z" transform="translate(-182.74 -101.14)"></path><path class="cls-4" d="M1716.58,1209.44c19.71-18.33,42.12-17.51,64.7-12.64,14.1,3,21.48,13.48,22.5,29.38.78,12.26.49,24.6.57,36.91.08,10.64,0,21.29,0,31.94,0,3.18-.57,6.12-4.69,6.27-4.51.16-5.6-2.67-5.6-6.45q0-28.95,0-57.9c0-5.3-.14-10.56-1.55-15.82-2.33-8.74-8-14.12-16.52-15.28-12.86-1.75-25.91-2.4-38.65,1.23-14.53,4.14-21,12.53-21.09,27.55-.17,18.3,0,36.6,0,54.9,0,2.33,0,4.66-.1,7-.15,3.18-1.8,4.89-5.07,4.81s-4.79-1.92-5-5c-.1-2-.09-4-.09-6q0-42.42,0-84.85c0-8.62,1.16-11.37,5.06-11,7.42.69,4.49,6.71,5.14,10.84C1716.3,1206.26,1716.35,1207.23,1716.58,1209.44Z" transform="translate(-182.74 -101.14)"></path><path class="cls-4" d="M2661.47,1247.65c0-7-.44-14,.08-20.94,1.45-19,10.93-29.25,29.72-31.58a157.83,157.83,0,0,1,43.79.46c11.9,1.86,19.21,8.82,21.46,19.38.71,3.37,1.42,7-2.91,8.28-4.06,1.22-6.15-1.06-6.94-5-1.93-9.5-8.72-12.9-17.5-13.08-11.65-.25-23.32-.56-34.94,0-13.6.65-20.28,6.46-22,19.92a194.56,194.56,0,0,0-.11,44.8c1.44,13.35,7.92,19.43,21.42,20.93a193.16,193.16,0,0,0,35.91.11c8.5-.65,15.57-4,17.24-13.64.6-3.48,2.51-5.58,6.15-4.84,4.37.89,4.61,4.21,3.79,7.79-1.89,8.26-6.14,14.65-14.35,17.86a42.67,42.67,0,0,1-15.53,3.23c-10,0-20,.24-30,0-22.25-.56-34.46-12.55-35.47-34.71-.29-6.3,0-12.64,0-19Z" transform="translate(-182.74 -101.14)"></path><path class="cls-4" d="M2297.27,1256.06c-11.24,13.64-21.57,26.21-31.91,38.75a53.6,53.6,0,0,1-4.58,5.26,4.29,4.29,0,0,1-6.28,0c-1.83-1.65-3-3.67-1.38-6.12,1.3-1.92,2.72-3.76,4.19-5.56,9.67-11.84,19.19-23.82,29.15-35.41,3.52-4.1,3.36-6.91,0-11-9.06-11-17.71-22.43-26.49-33.71-1.63-2.09-3.24-4.21-4.66-6.44s-.69-4.6,1.28-6.19a4.61,4.61,0,0,1,6.38.14,44,44,0,0,1,4.54,5.28c8,10.2,16,20.43,24,30.62,2,2.57,4.19,5,6.75,8.09,10.76-13,21.09-25.5,31.44-38a76.7,76.7,0,0,1,5.22-6,4.27,4.27,0,0,1,6.25-.22c2.38,2,3.17,4.24,1.22,6.92-1.17,1.61-2.47,3.13-3.74,4.67q-13.65,16.53-27.32,33c-8.09,9.72-7.44,7.2-.54,16.13,8.13,10.51,16.37,21,24.56,31.42,1.23,1.57,2.48,3.13,3.69,4.71,2.09,2.71,2.7,5.37-.53,7.69s-5.62,1.13-7.75-1.54q-4.36-5.46-8.66-11C2314.12,1277.54,2306.15,1267.37,2297.27,1256.06Z" transform="translate(-182.74 -101.14)"></path><path class="cls-4" d="M356.18,1214.46c5.2-3.88,8.75-8.13,13.33-11.33,8.77-6.13,18.73-8.26,29.15-8.88a13.16,13.16,0,0,1,3.94.42,4.57,4.57,0,0,1,3.7,4.16c.27,2.66-1,4.74-3.53,5.26a92.93,92.93,0,0,1-9.88,1.06c-22.16,2-36,16.17-36.55,38.41-.42,15.94,0,31.9-.18,47.85,0,4,1.52,9.72-5.2,9.77-6.91,0-5.09-5.82-5.11-9.71-.13-28.92-.07-57.83-.07-86.74,0-1.66.05-3.33.1-5,.09-3.08,1.56-5.16,4.74-5.27,3.67-.14,5.46,2.1,5.54,5.6C356.26,1204.87,356.18,1209.67,356.18,1214.46Z" transform="translate(-182.74 -101.14)"></path><path class="cls-4" d="M1835.39,1247.72q0,21.4,0,42.8a42.15,42.15,0,0,1-.38,6.93c-.44,2.6-2.22,3.9-5,3.88s-4.46-1.24-4.8-4a47.14,47.14,0,0,1-.29-5.95q0-43.29,0-86.59c0-2,0-4,.19-6a4.46,4.46,0,0,1,4.53-4.39,4.81,4.81,0,0,1,5.52,4.5,50.41,50.41,0,0,1,.18,7Q1835.41,1226.81,1835.39,1247.72Z" transform="translate(-182.74 -101.14)"></path><path class="cls-4" d="M1033.84,1247.38q0,21.4,0,42.8a43.33,43.33,0,0,1-.28,6.94c-.5,3.08-2.56,4.45-5.71,4.2-2.87-.23-4-2.06-4.27-4.6-.19-2-.16-4-.16-6q0-42.81,0-85.6c0-2,0-4,.15-6,.23-3.18,2.11-4.8,5.22-4.75a4.69,4.69,0,0,1,4.82,4.19,43.46,43.46,0,0,1,.23,6.95Q1033.86,1226.47,1033.84,1247.38Z" transform="translate(-182.74 -101.14)"></path><path class="cls-4" d="M3553.12,1247.28q0,21.39,0,42.79c0,2.32,0,4.65-.15,7a4.22,4.22,0,0,1-4.52,4.27c-3.17.09-5-1.35-5.39-4.52a48.36,48.36,0,0,1-.14-5q0-43.79,0-87.58c0-.67,0-1.33,0-2-.18-3.93.23-7.81,5.29-7.75,5.25.07,4.92,4.29,4.92,8Q3553.11,1224.89,3553.12,1247.28Z" transform="translate(-182.74 -101.14)"></path><path class="cls-4" d="M1028.83,1153.5c7.4.11,9.2,2,9.23,9.46,0,7.7-2.32,10-10,9.89-7-.12-9.32-2.48-9.38-9.64C1018.63,1155.65,1021,1153.38,1028.83,1153.5Z" transform="translate(-182.74 -101.14)"></path><path class="cls-4" d="M1830.46,1153.5c7.34.13,9.21,2.08,9.14,9.54-.07,7.74-2.38,10-10.07,9.81-7-.16-9.25-2.54-9.28-9.73C1820.22,1155.6,1822.6,1153.35,1830.46,1153.5Z" transform="translate(-182.74 -101.14)"></path><path class="cls-4" d="M3557.38,1162.62c0,8.35-1.83,10.34-9.65,10.22-7.27-.1-9.16-2.13-9.14-9.8s1.7-9.47,9.26-9.55C3555.79,1153.41,3557.33,1154.89,3557.38,1162.62Z" transform="translate(-182.74 -101.14)"></path><path class="cls-1" d="M944.54,832.63c-29.66-.09-65.95-5.42-100.19-20.9-12.79-5.79-24.71-13.05-34.53-23.31-20-20.95-19.79-45.86.82-66.14,3.77-3.71,8.13-6.83,12.27-10.17,16.85-13.61,27.6-30.27,27.28-52.83-.19-13.77,7-23.94,17.32-32.15,16.1-12.76,35.1-18.75,54.91-22,27.62-4.58,55-3.05,81.85,5.43,12.78,4.05,24.76,9.74,34.94,18.65,9.74,8.52,15.15,18.84,15,32.25-.21,20,9.39,35.55,24.18,48.26,5,4.33,10.56,8.14,15.27,12.8,20.91,20.69,21,45.8.15,66.78-12.41,12.51-27.7,20.54-44,26.81C1020.94,827.23,988.78,832.62,944.54,832.63Z" transform="translate(-182.74 -101.14)"></path><path class="cls-1" d="M942.84,510c.28,17-2.1,33.37-8.88,48.83-11.54,26.3-31.25,41.74-60.39,43.52-19,1.16-33.18-8-41.61-24.13C808,532.36,808.8,486,831.91,439.92a74.88,74.88,0,0,1,17.56-22.78c19.93-17.55,44.82-16.54,63.24,2.58,13.34,13.84,20.27,31,25.26,49.11A139.76,139.76,0,0,1,942.84,510Z" transform="translate(-182.74 -101.14)"></path><path class="cls-1" d="M961.72,509.6c-.41-18.32,2-36.09,8.6-53,6-15.33,12.81-30.6,26.06-41.28,16.19-13.05,38.5-14.47,56-.3,10.88,8.81,18.41,20.08,24,32.61,16.42,36.88,16.69,74.55,4.64,112.64a82.82,82.82,0,0,1-5.45,12.81c-13.82,26.85-36.75,35.75-65.13,25.28-23.89-8.82-36.85-27.26-44-50.61C962.53,535.29,961.37,522.42,961.72,509.6Z" transform="translate(-182.74 -101.14)"></path><path class="cls-1" d="M832.86,647.09a75.27,75.27,0,0,1-2.59,22.68c-9.56,35.18-54.77,49.08-82.66,24.54-13.33-11.73-22.41-26.2-28.74-42.48-9.44-24.3-13.78-49.16-6.29-74.91a86.63,86.63,0,0,1,4.4-12.14c12.14-26.42,39.51-34.31,64-18.42,14.54,9.45,25.19,22.5,33.68,37.41C825.82,603.41,832.76,624.28,832.86,647.09Z" transform="translate(-182.74 -101.14)"></path><path class="cls-1" d="M1155.56,538.5c7.44.18,18.16,5.88,26.17,16.7a65.31,65.31,0,0,1,11.86,29.27c5.91,38.72-4.75,73.1-29.74,102.71-14.36,17-33,23.82-55.43,17.16-20.57-6.12-35.18-23.47-36.36-45.1-2.17-39.85,10.33-74.42,38.71-102.85C1122.85,544.29,1136,538.42,1155.56,538.5Z" transform="translate(-182.74 -101.14)"></path><path class="cls-1" d="M720,1009.72c.18-14.75,10-27,24.25-29.93q32.65-6.7,65.38-13.12c15.06-3,26.24,8.09,23.68,23.22-2.44,14.38-11,23.16-25,26.47-16.8,4-33.69,7.55-50.54,11.29-4.21.93-8.53,1.52-12.63,2.84C730.79,1035.09,719,1023.86,720,1009.72Z" transform="translate(-182.74 -101.14)"></path><path class="cls-1" d="M753.12,243.36c-.12-17.41,12.65-26.22,27.14-20.62,10.86,4.2,20,17.39,19.82,28.71-.21,15.92-15,25.15-29.34,18.1C759.2,263.89,754.31,253.78,753.12,243.36Z" transform="translate(-182.74 -101.14)"></path><path class="cls-1" d="M2776.82,537.49c0-24.93-.05-49.87,0-74.8,0-7.72.16-7.88,7.57-7.89,34.94-.06,69.89-.29,104.82.09,17.65.19,33,7.29,46.09,18.91,16.7,14.83,27.46,33.05,30.87,55.43a51.24,51.24,0,0,1-.82,18.78c-6.21,28.88-21.88,51-47.9,65.31a59.84,59.84,0,0,1-29.67,7.34c-33.94-.16-67.88,0-101.82-.07-9.08,0-9.15-.08-9.16-9.3Q2776.77,574.39,2776.82,537.49Z" transform="translate(-182.74 -101.14)"></path><path class="cls-1" d="M2495,646H2312.7c-1.78-33.09,34.45-77,80.91-80C2447.08,562.67,2495.49,600.6,2495,646Z" transform="translate(-182.74 -101.14)"></path><path class="cls-1" d="M3340.2,645.91H3156.88c-.2-41.1,42.86-80.16,89.22-81.11C3294.54,563.81,3338.8,601.73,3340.2,645.91Z" transform="translate(-182.74 -101.14)"></path><path class="cls-1" d="M3393.12,1247c0,6.33-.07,12.65,0,19,.13,9.37-4.46,15.66-12.51,19.92a48,48,0,0,1-16.2,4.71,118.59,118.59,0,0,1-28.92.28c-13.74-1.51-20.07-8-22-21.68a98.15,98.15,0,0,1-.46-13c0-9-.38-18,.19-27,1.05-16.39,8.21-23.54,24.48-24.25a306.92,306.92,0,0,1,32.95.21c15.23,1,21.92,8.47,22.37,23.78C3393.27,1235.05,3393.12,1241,3393.12,1247Z" transform="translate(-182.74 -101.14)"></path><path class="cls-1" d="M731.88,1238.05c0,8.63.15,17.27,0,25.9-.27,13-4.85,19.53-17.21,23.73-14.8,5-30,4.79-45.23,2.19-10.22-1.75-15.81-8.51-16.81-18.34a223.14,223.14,0,0,1,.09-47.71c1.2-10.56,7.64-17.09,18.18-18.17,18.86-2,37.84-.58,56.77-.76,3.7,0,4.24,2.35,4.23,5.28q0,13.93,0,27.88Z" transform="translate(-182.74 -101.14)"></path><path class="cls-1" d="M2478.9,1238.48c0,8.63.17,17.27,0,25.89-.3,12.48-4.83,19-16.67,23.12-15.1,5.27-30.63,5.1-46.18,2.27-10.25-1.87-15.5-8.87-16.46-18.66a236.85,236.85,0,0,1-.05-45.73c1.2-12.47,8.07-19.07,20.8-20,10.91-.79,21.91-.46,32.87-.56,6.64-.06,13.29.12,19.93,0,4.17-.09,6,1.49,5.85,5.81C2478.75,1219.89,2478.89,1229.19,2478.9,1238.48Z" transform="translate(-182.74 -101.14)"></path><path class="cls-1" d="M1298.31,1238.86c0,8.63.09,17.26,0,25.89-.15,11.87-4.51,18.53-15.85,22.54-15.73,5.55-31.92,5.52-48.1,2.13-7.49-1.56-12.07-6.61-14.17-13.88a41.73,41.73,0,0,1-1.9-11.75c0-10.62-.22-21.25.07-31.87.52-18.86,8.1-26.57,26.93-27,15.61-.36,31.23.06,46.85-.18,4.75-.07,6.44,1.44,6.28,6.25C1298.09,1220.27,1298.31,1229.57,1298.31,1238.86Z" transform="translate(-182.74 -101.14)"></path><path class="cls-1" d="M3078.7,1257.74c0-7.32-.06-14.63,0-21.94.16-17.33,8.51-27.53,25.55-30a127.83,127.83,0,0,1,34.84-.2c10.43,1.34,16.32,6.64,18.07,17.1a157.15,157.15,0,0,1,.06,50.57c-1.44,9.15-7.06,14.65-16.22,16.68a45.66,45.66,0,0,1-9.84,1.37c-15.31,0-30.62-.13-45.91.24-5.41.13-6.82-1.84-6.65-6.86C3078.92,1275.69,3078.7,1266.71,3078.7,1257.74Z" transform="translate(-182.74 -101.14)"></path><path class="cls-1" d="M1644.42,1243.62c8,0,15.94.14,23.9-.06,4-.1,6.3.84,6,5.45-.29,5.29.06,10.62-.26,15.91-.63,10.61-6.16,17.92-15.8,22.21a43.22,43.22,0,0,1-15.39,3.77,237.42,237.42,0,0,1-27.85.11c-11.64-.79-16.37-6-17.55-17.67-2.29-22.44,4.16-29.56,27-29.71C1631.14,1243.58,1637.78,1243.62,1644.42,1243.62Z" transform="translate(-182.74 -101.14)"></path><path class="cls-1" d="M1416.79,1240.84a37.27,37.27,0,0,1-4.83.6c-22.61,0-45.23-.1-67.83.14-5.13.06-7.42-1.41-6.79-6.68.36-3,.24-6,.61-8.93,1.64-13.27,8-19.75,21.18-20.75a229.7,229.7,0,0,1,35.87,0c13.34,1.1,19.41,7.13,21.51,20.54C1417.28,1230.69,1418.2,1235.62,1416.79,1240.84Z" transform="translate(-182.74 -101.14)"></path><path class="cls-1" d="M3663.74,1240.77a26.38,26.38,0,0,1-4.07.66c-22.94,0-45.89-.09-68.83.15-5.17.06-7.37-1.47-6.76-6.7.35-3,.24-6,.61-8.94,1.65-13.25,8-19.73,21.21-20.72a228.48,228.48,0,0,1,35.87,0c13.33,1.09,19.38,7.13,21.48,20.55a83.3,83.3,0,0,1,.93,8.91A49.66,49.66,0,0,1,3663.74,1240.77Z" transform="translate(-182.74 -101.14)"></path><path class="cls-1" d="M3243.09,1243.62c8.65,0,17.3.17,25.94-.06,4.36-.12,6,1.52,5.74,5.79-.26,5,.22,10-.26,14.94-1.08,11.19-6.56,19.43-17.45,23.28-15.13,5.35-30.73,4.66-46.27,2.62-7-.92-11.15-5.53-12.56-12.45a47.33,47.33,0,0,1-1-5.87c-1.58-20.74,5-28,25.9-28.23C3229.79,1243.55,3236.44,1243.62,3243.09,1243.62Z" transform="translate(-182.74 -101.14)"></path><path class="cls-1" d="M2082.6,1243.63c8.64,0,17.29.06,25.94,0,3.26,0,5,1.09,4.84,4.6-.21,6,.27,12-.48,17.91-1.33,10.37-7,17.82-17.05,21.4-15.13,5.4-30.73,4.69-46.27,2.71-6.92-.88-11.24-5.38-12.66-12.35a51.48,51.48,0,0,1-1-5.87c-1.66-20.76,5-28.09,25.74-28.37C2068.62,1243.54,2075.61,1243.62,2082.6,1243.63Z" transform="translate(-182.74 -101.14)"></path><path class="cls-1" d="M454.29,1241.48c-11.32,0-22.63-.15-33.94.07-4.31.08-6.11-1.42-5.67-5.74.24-2.3,0-4.66.21-7,1.5-16.33,8.52-23.28,24.8-23.89,10-.38,20-.38,29.93.07,16.73.75,24,8.18,25,24.79.12,2,0,4,.19,6,.43,4.2-1.16,5.87-5.56,5.78C477.58,1241.32,465.93,1241.48,454.29,1241.48Z" transform="translate(-182.74 -101.14)"></path><path class="cls-1" d="M2557.84,1241.48c-11.65,0-23.29-.08-34.93,0-3.59,0-5.75-.85-5.4-5,.28-3.31,0-6.68.48-9.94,2.16-14.81,8.71-20.95,23.79-21.59,10.29-.44,20.64-.45,30.93,0,16.63.77,23.77,8.26,24.71,25,.12,2-.06,4,.18,6,.55,4.57-1.74,5.91-5.83,5.43-.32,0-.66,0-1,0Z" transform="translate(-182.74 -101.14)"></path><path class="cls-1" d="M253,1197.46c0-8.64.14-17.29-.06-25.94-.11-4.37.84-6.8,6-6.71,16,.27,32-.21,47.93.39,15.41.58,23,8.44,24,23.71a129.4,129.4,0,0,1,0,16.94c-1,13.78-8.07,22.25-21.56,23.07-17.25,1-34.6.41-51.91.58-3.7,0-4.33-2-4.3-5.1C253,1215.43,253,1206.44,253,1197.46Z" transform="translate(-182.74 -101.14)"></path><path class="cls-1" d="M2783.19,1247.78c0-7.62-.62-15.31.15-22.85,1.22-12.06,7.93-18.54,20-19.59a212.21,212.21,0,0,1,37.81,0c12.29,1.13,18.6,7.09,20.3,19.38a177.47,177.47,0,0,1,0,46.62c-1.31,10.45-7.12,17-17.64,18.69a128.93,128.93,0,0,1-42.58,0c-11.88-2.07-16.68-8.22-18.2-20.41a35.1,35.1,0,0,1-.36-4c0-6,0-11.94,0-17.91Z" transform="translate(-182.74 -101.14)"></path><path class="cls-1" d="M992.29,1247.92c0,6.3.33,12.63-.07,18.91-1,15.24-7.66,22.68-22.57,24.11a176.25,176.25,0,0,1-34.83,0c-13.71-1.42-20.47-7.91-21.82-21.62a221.13,221.13,0,0,1,0-42.74c1.36-14.3,8.45-20.73,22.74-21.4a326.66,326.66,0,0,1,33.85.12c14.08.8,21.19,7.82,22.47,21.78.63,6.91.11,13.92.11,20.89Z" transform="translate(-182.74 -101.14)"></path></svg>