<?xml version="1.0" encoding="UTF-8"?> <svg xmlns="http://www.w3.org/2000/svg" id="Calque_1" data-name="Calque 1" viewBox="0 0 548.72 778.06"><defs><style>.cls-1{fill:#f5a51d;}.cls-2{fill:#009cba;}.cls-3{fill:#fff;}</style></defs><title>Logo_LMH_quadri</title><path class="cls-1" d="M313.1,515.8S-6.9,344.11,30.56,216.25C68.09,88.22,277.84,45.06,366.62,36c63.94-6.55,216.56-19.54,189.29,135.54S471.43,589.94,313.1,515.8Z" transform="translate(-24.36 -32.59)"></path><path class="cls-2" d="M323.93,810.65V704.08c0-7,0-14.06.58-20.79h-.58c-2,5.28-8.76,15.23-12,20.19L276.2,758.25H257.78L217.94,702c-3.81-5.27-8.48-11.13-12.29-18.74h-.59c.31,7.31.31,14.05.31,19.61V810.65H165.55V617.7h36.89L253.09,690a228.46,228.46,0,0,1,14.06,21.68h.28a183.53,183.53,0,0,1,13.17-22.84l46.26-71.16h36.9V810.65Z" transform="translate(-24.36 -32.59)"></path><polygon class="cls-2" points="508.62 778.06 508.62 697.25 419.33 697.25 419.33 778.06 379.21 778.06 379.21 585.11 419.33 585.11 419.33 662.7 508.62 662.7 508.62 585.11 548.72 585.11 548.72 778.06 508.62 778.06"></polygon><polygon class="cls-2" points="40.27 744.97 40.27 585.11 38.8 585.11 38.8 583.72 0 583.72 0 616.61 0 616.61 0 778.06 108.22 778.06 108.22 744.97 40.27 744.97"></polygon><path class="cls-3" d="M74.2,404.86c27.88-6.81,106.23-24.08,141.33-30.37,10.85-1.93,22.71-3.79,35.45-5.48,7.42-64.67,17.68-177.83,18.77-187.13-12.9-6.24-104.2-49.3-104.2-49.3l10.54-20.32L295,168.62,275,366.11c28.38-3,60.68-5.12,96.74-5.54,5.08-17.35,8.61-36.48,11.09-54.39-30.84-7.4-53.7-33.39-53.7-64.27,0-36.59,32.13-66.37,71.59-66.37s71.64,29.78,71.64,66.37c0,35.83-30.8,65.1-69.16,66.32A422.39,422.39,0,0,1,393,360.5c32.82.2,135.57,3.87,174.05,7.42V390.1l-36.83-2.33c-88-7.5-201.73-4.77-257.81,1.53l-5.63,45-23.43-2.51s2.05-13.67,5-39.41c-9.6,1.36-18.65,2.79-27.08,4.28-21.52,3.8-40.33,8.08-56.58,12.37l-.46-.53L74.12,428.9V429Z" transform="translate(-24.36 -32.59)"></path><path class="cls-1" d="M388.45,237.11l20.42.27c0,1.64-.37,21.74-3,48.47,24.4-2.34,43.51-21.13,43.51-43.94,0-24.35-21.8-44.16-48.62-44.16s-48.56,19.81-48.56,44.16c0,19.5,14,36.1,33.29,41.93C388.11,257.37,388.45,237.5,388.45,237.11Z" transform="translate(-24.36 -32.59)"></path><path class="cls-3" d="M202.75,306V239.85h-58.5v22.73h35V306Z" transform="translate(-24.36 -32.59)"></path><polygon class="cls-3" points="367.22 108.09 360.61 61.08 381.85 59.36 384.2 107.83 367.22 108.09"></polygon><polygon class="cls-3" points="440.13 117.62 472.16 71.44 488.39 85.23 450.55 126.11 440.13 117.62"></polygon><polygon class="cls-3" points="488.28 189.39 544.98 176.74 546.7 197.98 489.68 202.75 488.28 189.39"></polygon></svg> 